<svg width="160" height="71" viewBox="0 0 160 71" fill="none" xmlns="http://www.w3.org/2000/svg">
<rect width="160" height="71" fill="#F2F2F2"/>
<g clip-path="url(#clip0_0_1)">
<rect width="375" height="667" transform="translate(-108 -298)" fill="white"/>
<rect x="-108" y="-298" width="375" height="667" fill="#F16967"/>
<path fill-rule="evenodd" clip-rule="evenodd" d="M48 39.49C51.4142 35.2288 53.6396 30.1398 54.45 24.74C54.6862 23.1469 54.8198 21.5402 54.85 19.93C54.83 14.2167 53.1633 9.51333 49.85 5.81999C46.5366 2.12666 41.4733 0.279993 34.66 0.279993H19.9C16.9331 0.216656 13.9676 0.457919 11.05 0.999993C6.20331 2.09333 2.86997 5.13333 1.04997 10.12C0.991006 10.2936 0.96721 10.4771 0.979973 10.66C0.979973 10.93 1.07997 11.06 1.26997 11.06C1.4273 11.083 1.57864 10.9905 1.62997 10.84C2.82997 8.77999 5.39664 7.05333 9.32997 5.65999C13.0493 4.31888 16.9296 3.47492 20.87 3.14999C20.63 3.52333 20.27 4.18999 19.79 5.14999C9.61664 25.25 4.52997 38.18 4.52997 43.94C4.52997 49.2733 9.73664 51.94 20.15 51.94C25.5134 51.9917 30.8302 50.9399 35.77 48.85C40.5587 46.7907 44.7611 43.5745 48 39.49ZM47.68 19C47.6645 21.1303 47.3994 23.2514 46.89 25.32V25.31C45.4371 31.8538 41.8744 37.7389 36.75 42.06C31.8342 46.429 25.4766 48.826 18.9 48.79C16.4533 48.79 14.75 48.5033 13.79 47.93C12.83 47.3567 12.35 46.1467 12.35 44.3C12.4775 41.8038 12.9868 39.3419 13.86 37C16.0442 30.327 18.6288 23.7918 21.6 17.43C24.7866 10.4767 27.5333 5.49999 29.84 2.49999C32.3648 2.54006 34.8706 2.94423 37.28 3.69999C39.6804 4.33556 41.8599 5.61902 43.58 7.40999C46.3636 10.6155 47.8287 14.7571 47.68 19Z" fill="white"/>
<path fill-rule="evenodd" clip-rule="evenodd" d="M85.32 33.19C85.32 32.2567 85.1767 31.79 84.89 31.79C84.75 31.79 84.58 32 84.43 32.27C82.9513 35.2028 81.2286 38.006 79.28 40.65C77.7108 42.6469 75.8696 44.414 73.81 45.9C72.038 47.3279 69.8539 48.1483 67.58 48.24C64.1733 48.24 62.47 46.24 62.47 42.24C62.5415 40.0162 63.0053 37.8225 63.84 35.76C65.2425 36.3749 66.7716 36.6458 68.3 36.55C71.4746 36.6275 74.6027 35.7759 77.3 34.1C79.6527 32.7923 81.1112 30.3117 81.11 27.62C81.1142 26.0393 80.4006 24.5421 79.17 23.55C77.7106 22.3675 75.8659 21.7656 73.99 21.86C69.1967 21.86 65 23.9467 61.4 28.12C57.9826 31.8311 56.0591 36.6754 56 41.72C56 44.9333 56.92 47.31 58.76 48.85C60.8611 50.4872 63.4794 51.3174 66.14 51.19C69.4507 51.096 72.6425 49.935 75.24 47.88C76.6033 46.8051 77.8351 45.5733 78.91 44.21C79.9797 42.9304 80.9811 41.5952 81.91 40.21C82.6367 39.0567 83.39 37.8333 84.17 36.54C84.8395 35.543 85.2361 34.388 85.32 33.19ZM76.7815 24.5559C77.1748 24.9669 77.352 25.5387 77.26 26.1C76.9592 28.3694 75.7907 30.4339 74 31.86C72.0067 33.6333 70.1 34.52 68.28 34.52C66.46 34.52 65.55 34.04 65.55 33.08C65.5567 31.6533 66.7067 29.7833 69 27.47C71.2933 25.1567 73.38 24.0033 75.26 24.01C75.8248 23.9428 76.3883 24.145 76.7815 24.5559Z" fill="white"/>
<path d="M111.73 35.89C108.13 41.89 104.867 46.0633 101.94 48.41C99.0133 50.7567 95.2267 51.9333 90.58 51.94C88.2304 52.0176 85.901 51.4835 83.82 50.39C82.1073 49.5179 81.0461 47.7414 81.09 45.82C81.0817 44.6845 81.4316 43.5752 82.09 42.65C82.7007 41.7216 83.7493 41.1765 84.86 41.21C85.8229 41.0838 86.7516 41.6157 87.13 42.51C86.2555 43.3324 85.7597 44.4796 85.76 45.68C85.76 48.08 87.0933 49.28 89.76 49.28C91.3051 49.2951 92.7934 48.6984 93.9 47.62C94.9872 46.7251 95.6389 45.4072 95.69 44C95.7157 42.7812 95.4191 41.5773 94.83 40.51C94.2695 39.5243 93.5651 38.6278 92.74 37.85L90.29 35.55C88.4139 33.932 87.3216 31.5872 87.29 29.11C87.2708 26.7545 88.305 24.5136 90.11 23C93.7888 20.2968 98.6307 19.7631 102.81 21.6C104.123 22.1883 104.949 23.5124 104.9 24.95C104.924 26.3781 104.439 27.768 103.53 28.87C102.623 29.9756 101.249 30.5905 99.82 30.53C98.26 30.53 97.48 29.81 97.48 28.37C97.48 28.0367 98.0333 27.5333 99.14 26.86C100.247 26.1867 100.8 25.49 100.8 24.77C100.829 24.1035 100.481 23.4772 99.9 23.15C99.1127 22.7477 98.2328 22.5614 97.35 22.61C96.186 22.6315 95.0614 23.0356 94.15 23.76C93.1673 24.4406 92.5865 25.5647 92.6 26.76C92.6319 28.101 93.2012 29.3729 94.18 30.29C95.2042 31.3713 96.3638 32.3158 97.63 33.1C98.9643 33.949 100.133 35.0332 101.08 36.3C102.078 37.5209 102.635 39.0431 102.66 40.62C102.694 42.0414 102.349 43.4463 101.66 44.69C101.036 45.8074 100.192 46.787 99.18 47.57C101.847 46.4167 104.7 43.5367 107.74 38.93C108.027 38.5433 108.53 37.7533 109.25 36.56C110.903 33.52 111.82 32 112 32C112.18 32 112.323 32.4433 112.43 33.33C112.432 34.2308 112.19 35.1153 111.73 35.89Z" fill="white"/>
<path d="M131.38 9.26001C129.027 10.8933 126.387 15.0667 123.46 21.78H130.73L130.8 21.85C130.8 22.09 130.537 22.51 130.01 23.11C129.483 23.71 129.027 24.01 128.64 24.01H122.45C118.657 33.4167 116.76 39.4633 116.76 42.15C116.76 43.9767 117.337 44.89 118.49 44.89C120.17 44.89 122.137 43.45 124.39 40.57C125.17 39.5706 125.869 38.5106 126.48 37.4C128.687 33.8467 129.84 32.07 129.94 32.07C130.23 32.07 130.37 32.45 130.37 33.22C130.323 35.0467 128.323 38.5967 124.37 43.87C123.011 45.6607 121.44 47.2792 119.69 48.69C118.328 49.9835 116.563 50.7706 114.69 50.92C111.957 50.92 110.59 49 110.59 45.16C110.742 41.3578 111.558 37.6114 113 34.09V34C112.322 35.3079 111.54 36.5587 110.66 37.74C109.993 38.5533 109.62 38.96 109.54 38.96C109.35 38.96 109.25 38.66 109.25 38.06C109.391 37.031 109.73 36.0392 110.25 35.14C110.917 33.8067 111.803 32.0567 112.91 29.89C114.017 27.7233 114.94 25.7567 115.68 23.99H110.8C110.66 23.99 110.58 23.88 110.58 23.67C110.666 23.2582 110.851 22.8737 111.12 22.55C111.48 22.0233 111.757 21.76 111.95 21.76H117.42C120.873 13.46 124.377 9.31001 127.93 9.31001C129.977 9.32334 131.127 9.30668 131.38 9.26001Z" fill="white"/>
<path d="M156.07 22.43H159.07C157.583 23.3433 156.073 25.5967 154.54 29.19C153.293 32.21 152.237 34.9567 151.37 37.43C150.503 39.9033 149.977 41.4033 149.79 41.93C149.597 42.4567 149.153 43.74 148.46 45.78C147.767 47.82 147.203 49.39 146.77 50.49C145.83 53.3681 144.421 56.0711 142.6 58.49C140.999 60.4697 138.985 62.0769 136.7 63.2C134.48 64.3616 132.015 64.9786 129.51 65C127.374 65.0623 125.258 64.5805 123.36 63.6C121.711 62.755 120.713 61.0202 120.81 59.17C120.81 58.137 121.163 57.135 121.81 56.33C122.281 55.5579 123.098 55.0621 124 55C124.749 54.9773 125.487 55.1793 126.12 55.58C126.633 55.8993 127.054 56.3475 127.34 56.88C126.48 57.1667 126.05 58.1667 126.05 59.88C126.024 60.7287 126.394 61.5412 127.05 62.08C127.748 62.6493 128.63 62.9445 129.53 62.91C133.417 62.91 136.68 59.43 139.32 52.47L143.42 41.53C141.661 43.8274 139.696 45.9596 137.55 47.9C136.42 48.9808 135.102 49.8451 133.66 50.45C132.584 50.7563 131.469 50.9012 130.35 50.88C129.134 50.9101 127.985 50.3278 127.29 49.33C126.435 47.9815 126.042 46.3915 126.17 44.8C126.369 41.893 126.951 39.025 127.9 36.27C128.759 33.1929 130.016 30.2412 131.64 27.49C132.612 25.7094 134.091 24.2579 135.89 23.32C137.81 22.6189 139.848 22.2996 141.89 22.38C141.97 22.3657 142.053 22.3916 142.111 22.4494C142.168 22.5072 142.194 22.5895 142.18 22.67C142.13 22.9546 141.977 23.2108 141.75 23.39C139.75 25.1167 137.75 28.21 135.75 32.67C133.75 37.13 132.727 40.9067 132.68 44C132.68 45.6333 133.137 46.45 134.05 46.45C135.777 46.45 137.983 44.7233 140.67 41.27C143.184 38.1069 145.266 34.6229 146.86 30.91L147.69 28.82C148.05 27.9067 148.303 27.2833 148.45 26.95C148.59 26.62 148.82 26.15 149.13 25.55C149.338 25.1006 149.618 24.6885 149.96 24.33C150.2 24.1167 150.533 23.84 150.96 23.5C151.322 23.1858 151.754 22.9629 152.22 22.85C153.486 22.5809 154.776 22.4402 156.07 22.43Z" fill="white"/>
<rect x="63.43" y="58.46" width="44.75" height="3.74" rx="1.87" fill="white"/>
<rect x="95.61" y="66.67" width="63.41" height="3.74" rx="1.87" fill="white"/>
</g>
<defs>
<clipPath id="clip0_0_1">
<rect width="375" height="667" fill="white" transform="translate(-108 -298)"/>
</clipPath>
</defs>
</svg>
